<?xml version="1.0" encoding="UTF-8" standalone="no"?>
<!DOCTYPE svg PUBLIC "-//W3C//DTD SVG 1.1//EN"
 "http://www.w3.org/Graphics/SVG/1.1/DTD/svg11.dtd">
<!-- Generated by graphviz version 2.47.0 (20210316.0004)
 -->
<!-- Title: dependencies Pages: 1 -->
<svg width="596pt" height="284pt"
 viewBox="0.00 0.00 596.00 284.00" xmlns="http://www.w3.org/2000/svg" xmlns:xlink="http://www.w3.org/1999/xlink">
<g id="graph0" class="graph" transform="scale(1 1) rotate(0) translate(4 280)">
<title>dependencies</title>
<polygon fill="white" stroke="transparent" points="-4,4 -4,-280 592,-280 592,4 -4,4"/>
<text text-anchor="start" x="273.01" y="-42.4" font-family="Times-12" font-weight="bold" font-size="14.00">Legend</text>
<polygon fill="#ffffb3" stroke="transparent" points="60,-10 60,-30 80,-30 80,-10 60,-10"/>
<text text-anchor="start" x="83.63" y="-15.4" font-family="Times-12" font-size="14.00"> &#160;Declarations</text>
<polygon fill="#8dd3c7" stroke="transparent" points="173,-10 173,-30 193,-30 193,-10 173,-10"/>
<text text-anchor="start" x="196.73" y="-15.4" font-family="Times-12" font-size="14.00"> &#160;Module</text>
<polygon fill="#80b1d3" stroke="transparent" points="259,-10 259,-30 279,-30 279,-10 259,-10"/>
<text text-anchor="start" x="282.78" y="-15.4" font-family="Times-12" font-size="14.00"> &#160;Bootstrap</text>
<polygon fill="#fdb462" stroke="transparent" points="356,-10 356,-30 376,-30 376,-10 356,-10"/>
<text text-anchor="start" x="379.67" y="-15.4" font-family="Times-12" font-size="14.00"> &#160;Providers</text>
<polygon fill="#fb8072" stroke="transparent" points="452,-10 452,-30 472,-30 472,-10 452,-10"/>
<text text-anchor="start" x="475.73" y="-15.4" font-family="Times-12" font-size="14.00"> &#160;Exports</text>
<g id="clust1" class="cluster">
<title>cluster_UiModule</title>
<polygon fill="none" stroke="black" stroke-dasharray="1,5" points="8,-70 8,-268 580,-268 580,-70 8,-70"/>
</g>
<g id="clust3" class="cluster">
<title>cluster_UiModule_imports</title>
<polygon fill="none" stroke="black" points="29,-78 29,-130 563,-130 563,-78 29,-78"/>
</g>
<g id="clust4" class="cluster">
<title>cluster_UiModule_exports</title>
<polygon fill="none" stroke="black" points="16,-208 16,-260 572,-260 572,-208 16,-208"/>
</g>
<!-- ButtonUi -->
<g id="node1" class="node">
<title>ButtonUi</title>
<polygon fill="#8dd3c7" stroke="black" points="555.12,-122 552.12,-126 531.12,-126 528.12,-122 486.88,-122 486.88,-86 555.12,-86 555.12,-122"/>
<text text-anchor="middle" x="521" y="-99.8" font-family="Times,serif" font-size="14.00">ButtonUi</text>
</g>
<!-- UiModule -->
<g id="node7" class="node">
<title>UiModule</title>
<polygon fill="#8dd3c7" stroke="black" points="315.55,-187 312.55,-191 291.55,-191 288.55,-187 242.45,-187 242.45,-151 315.55,-151 315.55,-187"/>
<text text-anchor="middle" x="279" y="-164.8" font-family="Times,serif" font-size="14.00">UiModule</text>
</g>
<!-- ButtonUi&#45;&gt;UiModule -->
<g id="edge1" class="edge">
<title>ButtonUi&#45;&gt;UiModule</title>
<path fill="none" stroke="black" d="M534.1,-122.27C534.1,-140.56 534.1,-166 534.1,-166 534.1,-166 325.55,-166 325.55,-166"/>
<polygon fill="black" stroke="black" points="325.55,-162.5 315.55,-166 325.55,-169.5 325.55,-162.5"/>
</g>
<!-- CardUi -->
<g id="node2" class="node">
<title>CardUi</title>
<polygon fill="#8dd3c7" stroke="black" points="468.71,-122 465.71,-126 444.71,-126 441.71,-122 411.29,-122 411.29,-86 468.71,-86 468.71,-122"/>
<text text-anchor="middle" x="440" y="-99.8" font-family="Times,serif" font-size="14.00">CardUi</text>
</g>
<!-- CardUi&#45;&gt;UiModule -->
<g id="edge2" class="edge">
<title>CardUi&#45;&gt;UiModule</title>
<path fill="none" stroke="black" d="M450.28,-122.01C450.28,-138.05 450.28,-159 450.28,-159 450.28,-159 325.74,-159 325.74,-159"/>
<polygon fill="black" stroke="black" points="325.74,-155.5 315.74,-159 325.74,-162.5 325.74,-155.5"/>
</g>
<!-- DialogUi -->
<g id="node3" class="node">
<title>DialogUi</title>
<polygon fill="#8dd3c7" stroke="black" points="393.1,-122 390.1,-126 369.1,-126 366.1,-122 324.9,-122 324.9,-86 393.1,-86 393.1,-122"/>
<text text-anchor="middle" x="359" y="-99.8" font-family="Times,serif" font-size="14.00">DialogUi</text>
</g>
<!-- DialogUi&#45;&gt;UiModule -->
<g id="edge3" class="edge">
<title>DialogUi&#45;&gt;UiModule</title>
<path fill="none" stroke="black" d="M324.75,-104C317.26,-104 311.52,-104 311.52,-104 311.52,-104 311.52,-140.89 311.52,-140.89"/>
<polygon fill="black" stroke="black" points="308.02,-140.89 311.52,-150.89 315.02,-140.89 308.02,-140.89"/>
</g>
<!-- FooterUi -->
<g id="node4" class="node">
<title>FooterUi</title>
<polygon fill="#8dd3c7" stroke="black" points="307.05,-122 304.05,-126 283.05,-126 280.05,-122 240.95,-122 240.95,-86 307.05,-86 307.05,-122"/>
<text text-anchor="middle" x="274" y="-99.8" font-family="Times,serif" font-size="14.00">FooterUi</text>
</g>
<!-- FooterUi&#45;&gt;UiModule -->
<g id="edge4" class="edge">
<title>FooterUi&#45;&gt;UiModule</title>
<path fill="none" stroke="black" d="M274.75,-122.11C274.75,-122.11 274.75,-140.99 274.75,-140.99"/>
<polygon fill="black" stroke="black" points="271.25,-140.99 274.75,-150.99 278.25,-140.99 271.25,-140.99"/>
</g>
<!-- HeaderUi -->
<g id="node5" class="node">
<title>HeaderUi</title>
<polygon fill="#8dd3c7" stroke="black" points="223.41,-122 220.41,-126 199.41,-126 196.41,-122 152.59,-122 152.59,-86 223.41,-86 223.41,-122"/>
<text text-anchor="middle" x="188" y="-99.8" font-family="Times,serif" font-size="14.00">HeaderUi</text>
</g>
<!-- HeaderUi&#45;&gt;UiModule -->
<g id="edge5" class="edge">
<title>HeaderUi&#45;&gt;UiModule</title>
<path fill="none" stroke="black" d="M196.23,-122.01C196.23,-138.05 196.23,-159 196.23,-159 196.23,-159 231.97,-159 231.97,-159"/>
<polygon fill="black" stroke="black" points="231.97,-162.5 241.97,-159 231.97,-155.5 231.97,-162.5"/>
</g>
<!-- NotificationUi -->
<g id="node6" class="node">
<title>NotificationUi</title>
<polygon fill="#8dd3c7" stroke="black" points="134.65,-122 131.65,-126 110.65,-126 107.65,-122 37.35,-122 37.35,-86 134.65,-86 134.65,-122"/>
<text text-anchor="middle" x="86" y="-99.8" font-family="Times,serif" font-size="14.00">NotificationUi</text>
</g>
<!-- NotificationUi&#45;&gt;UiModule -->
<g id="edge6" class="edge">
<title>NotificationUi&#45;&gt;UiModule</title>
<path fill="none" stroke="black" d="M130.2,-122.27C130.2,-140.56 130.2,-166 130.2,-166 130.2,-166 232.22,-166 232.22,-166"/>
<polygon fill="black" stroke="black" points="232.22,-169.5 242.22,-166 232.22,-162.5 232.22,-169.5"/>
</g>
<!-- ButtonUi  -->
<g id="node8" class="node">
<title>ButtonUi </title>
<polygon fill="#fb8072" stroke="black" points="563.62,-252 492.38,-252 492.38,-216 563.62,-216 563.62,-252"/>
<text text-anchor="middle" x="528" y="-229.8" font-family="Times,serif" font-size="14.00">ButtonUi </text>
</g>
<!-- UiModule&#45;&gt;ButtonUi  -->
<g id="edge7" class="edge">
<title>UiModule&#45;&gt;ButtonUi </title>
<path fill="none" stroke="black" stroke-dasharray="5,2" d="M315.59,-173C381.44,-173 513.15,-173 513.15,-173 513.15,-173 513.15,-205.7 513.15,-205.7"/>
<polygon fill="black" stroke="black" points="509.65,-205.7 513.15,-215.7 516.65,-205.7 509.65,-205.7"/>
</g>
<!-- CardUi  -->
<g id="node9" class="node">
<title>CardUi </title>
<polygon fill="#fb8072" stroke="black" points="474.21,-252 413.79,-252 413.79,-216 474.21,-216 474.21,-252"/>
<text text-anchor="middle" x="444" y="-229.8" font-family="Times,serif" font-size="14.00">CardUi </text>
</g>
<!-- UiModule&#45;&gt;CardUi  -->
<g id="edge8" class="edge">
<title>UiModule&#45;&gt;CardUi </title>
<path fill="none" stroke="black" stroke-dasharray="5,2" d="M315.64,-180C360.89,-180 431.97,-180 431.97,-180 431.97,-180 431.97,-205.72 431.97,-205.72"/>
<polygon fill="black" stroke="black" points="428.47,-205.72 431.97,-215.72 435.47,-205.72 428.47,-205.72"/>
</g>
<!-- DialogUi  -->
<g id="node10" class="node">
<title>DialogUi </title>
<polygon fill="#fb8072" stroke="black" points="395.6,-252 324.4,-252 324.4,-216 395.6,-216 395.6,-252"/>
<text text-anchor="middle" x="360" y="-229.8" font-family="Times,serif" font-size="14.00">DialogUi </text>
</g>
<!-- UiModule&#45;&gt;DialogUi  -->
<g id="edge9" class="edge">
<title>UiModule&#45;&gt;DialogUi </title>
<path fill="none" stroke="black" stroke-dasharray="5,2" d="M310.9,-187.11C310.9,-206.34 310.9,-234 310.9,-234 310.9,-234 314.32,-234 314.32,-234"/>
<polygon fill="black" stroke="black" points="314.32,-237.5 324.32,-234 314.32,-230.5 314.32,-237.5"/>
</g>
<!-- FooterUi  -->
<g id="node11" class="node">
<title>FooterUi </title>
<polygon fill="#fb8072" stroke="black" points="306.05,-252 235.95,-252 235.95,-216 306.05,-216 306.05,-252"/>
<text text-anchor="middle" x="271" y="-229.8" font-family="Times,serif" font-size="14.00">FooterUi </text>
</g>
<!-- UiModule&#45;&gt;FooterUi  -->
<g id="edge10" class="edge">
<title>UiModule&#45;&gt;FooterUi </title>
<path fill="none" stroke="black" stroke-dasharray="5,2" d="M274.12,-187.11C274.12,-187.11 274.12,-205.99 274.12,-205.99"/>
<polygon fill="black" stroke="black" points="270.62,-205.99 274.12,-215.99 277.62,-205.99 270.62,-205.99"/>
</g>
<!-- HeaderUi  -->
<g id="node12" class="node">
<title>HeaderUi </title>
<polygon fill="#fb8072" stroke="black" points="217.91,-252 144.09,-252 144.09,-216 217.91,-216 217.91,-252"/>
<text text-anchor="middle" x="181" y="-229.8" font-family="Times,serif" font-size="14.00">HeaderUi </text>
</g>
<!-- UiModule&#45;&gt;HeaderUi  -->
<g id="edge11" class="edge">
<title>UiModule&#45;&gt;HeaderUi </title>
<path fill="none" stroke="black" stroke-dasharray="5,2" d="M242.16,-180C212.08,-180 174.52,-180 174.52,-180 174.52,-180 174.52,-205.72 174.52,-205.72"/>
<polygon fill="black" stroke="black" points="171.02,-205.72 174.52,-215.72 178.02,-205.72 171.02,-205.72"/>
</g>
<!-- NotificationUi  -->
<g id="node13" class="node">
<title>NotificationUi </title>
<polygon fill="#fb8072" stroke="black" points="125.65,-252 24.35,-252 24.35,-216 125.65,-216 125.65,-252"/>
<text text-anchor="middle" x="75" y="-229.8" font-family="Times,serif" font-size="14.00">NotificationUi </text>
</g>
<!-- UiModule&#45;&gt;NotificationUi  -->
<g id="edge12" class="edge">
<title>UiModule&#45;&gt;NotificationUi </title>
<path fill="none" stroke="black" stroke-dasharray="5,2" d="M242.29,-173C185.14,-173 81.38,-173 81.38,-173 81.38,-173 81.38,-205.7 81.38,-205.7"/>
<polygon fill="black" stroke="black" points="77.88,-205.7 81.38,-215.7 84.88,-205.7 77.88,-205.7"/>
</g>
</g>
</svg>
